<svg id="Layer_1" data-name="Layer 1" xmlns="http://www.w3.org/2000/svg" xmlns:xlink="http://www.w3.org/1999/xlink" viewBox="0 0 367 123.6"><defs><style>.cls-1{fill:#cd1543;}.cls-2{fill:#231f20;}.cls-3{fill:url(#Final_Tan_Gradient);}.cls-4{fill:#fff;}</style><radialGradient id="Final_Tan_Gradient" cx="209.98" cy="21.16" r="41.82" gradientTransform="translate(-188.96 63.87) scale(1.23 1.23)" gradientUnits="userSpaceOnUse"><stop offset="0.25" stop-color="#fff"/><stop offset="0.84" stop-color="#d0b38d"/></radialGradient></defs><path class="cls-1" d="M157,75.17c4.3,1.54,2.48,6.16,1.49,9.42l-6.22,20.87-7.64-24.7c-.77-2.5-1.15-4.33-.83-5.76h-7.75v.17c3,1.6,1.93,5.31.88,8.79l-6.44,21.67-8.19-26.52a10.24,10.24,0,0,1-.66-4.11h-8v.17c2.75,1.94,3.58,5.65,4.56,8.79l6.5,21.05c1.81,5.87,2.3,5.47,7.31,9.24l8.58-28.81,6,19.62c1.82,5.88,2.2,5.59,7.26,9.19L165.49,75H157Z" transform="translate(-29.83 -28.08)"/><path class="cls-1" d="M167.36,75.17c2.81,1.09,2.42,5.25,2.42,7.88v21.5c0,2.56.33,6.79-2.42,7.81v.18h10.46v-.18c-2.75-1.08-2.43-5.25-2.43-7.81V83.05c0-2.57-.32-6.79,2.43-7.88V75H167.36Z" transform="translate(-29.83 -28.08)"/><path class="cls-1" d="M187.44,83.39c0-3.94,4-5.19,7.09-5.19a12.28,12.28,0,0,1,8.64,3.59V75.34a26.88,26.88,0,0,0-8.2-1.25c-6.7,0-13.8,2.74-13.8,9.92,0,12.1,18.92,10.5,18.92,19.4,0,4-4.73,5.93-7.86,5.93a18.67,18.67,0,0,1-12-4.73l1.6,7.13a27.7,27.7,0,0,0,9.84,1.71c8.58,0,14.74-5.71,14.74-11.81C206.36,91.09,187.44,91.2,187.44,83.39Z" transform="translate(-29.83 -28.08)"/><path class="cls-1" d="M228.66,108.72c-8.48,0-14-7.48-14-15.86s5.28-14,12.87-14a18.6,18.6,0,0,1,10.18,3.25V75.52a42.43,42.43,0,0,0-10-1.43c-11.28,0-19.31,7.81-19.31,19.62,0,12.21,8,19.74,21,19.74a19,19,0,0,0,8.3-1.71l2.81-6.62h-.17A23.67,23.67,0,0,1,228.66,108.72Z" transform="translate(-29.83 -28.08)"/><path class="cls-1" d="M260.37,74a19.85,19.85,0,0,0-20.62,19.61c0,11.7,9.18,19.8,20.07,19.8a20,20,0,0,0,20.24-20.08A19.3,19.3,0,0,0,260.37,74Zm-.27,35.3c-8.63,0-14.08-8.21-14.08-16.2,0-8.61,5.45-15,14-15,8.69,0,13.8,8,13.8,16.37C273.79,103,268.46,109.34,260.1,109.34Z" transform="translate(-29.83 -28.08)"/><path class="cls-1" d="M308.32,75.17c2.91,1.72,2.86,4,2.86,7.19V104L291.05,77.63l-.77-1.14a3.51,3.51,0,0,1-.83-1.43V75h-8v.17c2.86,1.72,2.86,4,2.86,7.19v22.76c0,3.19,0,5.47-2.91,7.24v.18h9.73v-.18c-2.91-1.77-2.86-4-2.86-7.24V83.05l18.87,24.81c2.42,3.25,4.12,5.13,8,6.5v-32c0-3.19,0-5.47,2.86-7.19V75h-9.68Z" transform="translate(-29.83 -28.08)"/><path class="cls-1" d="M326,83.39c0-3.94,4-5.19,7.1-5.19a12.31,12.31,0,0,1,8.64,3.59V75.34a26.93,26.93,0,0,0-8.2-1.25c-6.71,0-13.8,2.74-13.8,9.92,0,12.1,18.91,10.5,18.91,19.4,0,4-4.72,5.93-7.86,5.93a18.72,18.72,0,0,1-12.05-4.73l1.6,7.13a27.76,27.76,0,0,0,9.85,1.71c8.58,0,14.74-5.71,14.74-11.81C345,91.09,326,91.2,326,83.39Z" transform="translate(-29.83 -28.08)"/><path class="cls-1" d="M347,75.17c2.8,1.09,2.42,5.25,2.42,7.88v21.5c0,2.56.33,6.79-2.42,7.81v.18h10.45v-.18c-2.75-1.08-2.42-5.25-2.42-7.81V83.05c0-2.57-.33-6.79,2.42-7.88V75H347Z" transform="translate(-29.83 -28.08)"/><path class="cls-1" d="M387.15,75v.17c2.93,1.72,2.87,4,2.87,7.19V104L369.88,77.63l-.77-1.14a3.61,3.61,0,0,1-.82-1.43V75h-8v.17c2.85,1.72,2.85,4,2.85,7.19v22.76c0,3.19,0,5.47-2.91,7.24v.18h9.74v-.18c-2.92-1.77-2.86-4-2.86-7.24V83.05l18.86,24.81c2.42,3.25,4.14,5.13,8,6.5v-32c0-3.19,0-5.47,2.86-7.19V75Z" transform="translate(-29.83 -28.08)"/><path class="cls-2" d="M129.1,128.75a2.59,2.59,0,0,0,1.07-.2A2.24,2.24,0,0,0,131,128a2.38,2.38,0,0,0,.5-.88,3.29,3.29,0,0,0,.18-1.12V119.9h1.48V126a4.54,4.54,0,0,1-.28,1.63,3.57,3.57,0,0,1-2.08,2.15,4.73,4.73,0,0,1-3.37,0,3.64,3.64,0,0,1-1.27-.85,3.86,3.86,0,0,1-.81-1.3,4.54,4.54,0,0,1-.28-1.63V119.9h1.49V126a3.67,3.67,0,0,0,.17,1.13,2.53,2.53,0,0,0,.5.88,2.24,2.24,0,0,0,.81.57A2.67,2.67,0,0,0,129.1,128.75Z" transform="translate(-29.83 -28.08)"/><path class="cls-2" d="M144.08,119.9v10h-.76a.65.65,0,0,1-.29-.06.73.73,0,0,1-.23-.21l-5.68-7.34c0,.13,0,.25,0,.37s0,.24,0,.35V130h-1.3v-10h.77a.75.75,0,0,1,.29,0,.69.69,0,0,1,.22.21l5.69,7.35a2.69,2.69,0,0,1,0-.4c0-.12,0-.24,0-.36V119.9Z" transform="translate(-29.83 -28.08)"/><path class="cls-2" d="M148.45,130H147v-10h1.49Z" transform="translate(-29.83 -28.08)"/><path class="cls-2" d="M159.61,119.9l-4.09,10h-1.34l-4.08-10h1.19a.49.49,0,0,1,.32.1.58.58,0,0,1,.18.25l2.72,6.83c.06.17.13.35.19.55s.12.41.17.63c0-.22.1-.43.16-.63a3.94,3.94,0,0,1,.18-.55l2.71-6.83a.59.59,0,0,1,.17-.25.51.51,0,0,1,.32-.1Z" transform="translate(-29.83 -28.08)"/><path class="cls-2" d="M167.48,128.74V130h-6.23v-10h6.23v1.21h-4.73v3.18h3.8v1.17h-3.8v3.28Z" transform="translate(-29.83 -28.08)"/><path class="cls-2" d="M177.26,130h-1.33a.64.64,0,0,1-.59-.31l-2.48-3.49a.76.76,0,0,0-.26-.25.91.91,0,0,0-.42-.07h-1V130h-1.49v-10h2.89a6,6,0,0,1,1.68.2,3.07,3.07,0,0,1,1.16.57,2.14,2.14,0,0,1,.68.88,2.89,2.89,0,0,1,.22,1.16,2.94,2.94,0,0,1-.16,1,2.62,2.62,0,0,1-.47.83,2.94,2.94,0,0,1-.76.63,3.57,3.57,0,0,1-1,.41,1.56,1.56,0,0,1,.49.47Zm-4.69-5.21a3.12,3.12,0,0,0,1-.14,2,2,0,0,0,.73-.39,1.76,1.76,0,0,0,.44-.61,2,2,0,0,0,.15-.78,1.55,1.55,0,0,0-.57-1.31,2.74,2.74,0,0,0-1.72-.44h-1.4v3.67Z" transform="translate(-29.83 -28.08)"/><path class="cls-2" d="M184.17,121.54a.65.65,0,0,1-.15.17.31.31,0,0,1-.19.06.5.5,0,0,1-.29-.12l-.4-.26a4.55,4.55,0,0,0-.58-.26,2.73,2.73,0,0,0-.81-.11,2.55,2.55,0,0,0-.77.11,1.79,1.79,0,0,0-.56.32,1.32,1.32,0,0,0-.34.47,1.58,1.58,0,0,0-.11.58,1.09,1.09,0,0,0,.2.67,1.8,1.8,0,0,0,.55.46,3.78,3.78,0,0,0,.76.33l.88.29a7.18,7.18,0,0,1,.87.35,3,3,0,0,1,.76.49,2.23,2.23,0,0,1,.55.73,2.52,2.52,0,0,1,.2,1.05,3.27,3.27,0,0,1-.23,1.25,2.95,2.95,0,0,1-1.72,1.69,3.89,3.89,0,0,1-1.44.25,4.83,4.83,0,0,1-.94-.09,4.1,4.1,0,0,1-.86-.27,4,4,0,0,1-.76-.41,3.32,3.32,0,0,1-.63-.54l.42-.72a.67.67,0,0,1,.15-.14.46.46,0,0,1,.2,0,.58.58,0,0,1,.34.15c.13.1.29.22.48.34a3.59,3.59,0,0,0,.68.34,3,3,0,0,0,1.79,0,1.74,1.74,0,0,0,.61-.35,1.55,1.55,0,0,0,.38-.55,1.8,1.8,0,0,0,.13-.71,1.2,1.2,0,0,0-.2-.72,1.64,1.64,0,0,0-.54-.47,3.28,3.28,0,0,0-.76-.32l-.88-.28q-.45-.15-.87-.33a2.83,2.83,0,0,1-.77-.5,2.12,2.12,0,0,1-.53-.76,2.71,2.71,0,0,1-.21-1.13,2.68,2.68,0,0,1,.83-1.94,2.88,2.88,0,0,1,1-.62,3.52,3.52,0,0,1,1.34-.23,4.41,4.41,0,0,1,1.56.27,3.56,3.56,0,0,1,1.23.77Z" transform="translate(-29.83 -28.08)"/><path class="cls-2" d="M188.44,130h-1.5v-10h1.5Z" transform="translate(-29.83 -28.08)"/><path class="cls-2" d="M198.05,121.14h-3.19V130h-1.49v-8.81h-3.2V119.9h7.88Z" transform="translate(-29.83 -28.08)"/><path class="cls-2" d="M204.15,126v4h-1.48v-4L199,119.9h1.3a.53.53,0,0,1,.32.09.79.79,0,0,1,.19.25L203,124c.09.17.17.34.24.49a4.47,4.47,0,0,1,.19.46,4.37,4.37,0,0,1,.18-.46c.07-.15.15-.32.24-.49l2.17-3.76a.85.85,0,0,1,.2-.23.41.41,0,0,1,.31-.11h1.31Z" transform="translate(-29.83 -28.08)"/><path class="cls-2" d="M222.6,124.92a5.69,5.69,0,0,1-.36,2.07,4.79,4.79,0,0,1-1,1.63,4.54,4.54,0,0,1-1.57,1.06,5.64,5.64,0,0,1-4.07,0,4.58,4.58,0,0,1-1.58-1.06,4.93,4.93,0,0,1-1-1.63,5.49,5.49,0,0,1-.37-2.07,5.55,5.55,0,0,1,.37-2.06,4.93,4.93,0,0,1,1-1.63,4.58,4.58,0,0,1,1.58-1.06,5.64,5.64,0,0,1,4.07,0,4.54,4.54,0,0,1,1.57,1.06,4.79,4.79,0,0,1,1,1.63A5.75,5.75,0,0,1,222.6,124.92Zm-1.52,0a4.81,4.81,0,0,0-.25-1.61,3.42,3.42,0,0,0-.69-1.21,3.15,3.15,0,0,0-1.1-.76,3.92,3.92,0,0,0-2.86,0,3.15,3.15,0,0,0-1.1.76,3.6,3.6,0,0,0-.7,1.21,5.55,5.55,0,0,0,0,3.23,3.7,3.7,0,0,0,.7,1.21,3,3,0,0,0,1.1.75,3.92,3.92,0,0,0,2.86,0,3,3,0,0,0,1.1-.75,3.51,3.51,0,0,0,.69-1.21A4.79,4.79,0,0,0,221.08,124.92Z" transform="translate(-29.83 -28.08)"/><path class="cls-2" d="M226.29,121.11v3.37h4v1.21h-4V130h-1.5v-10H231v1.21Z" transform="translate(-29.83 -28.08)"/><path class="cls-2" d="M250.15,119.9,247,130h-1.35l-2.45-7.45a4.17,4.17,0,0,1-.14-.54q-.08.32-.15.54L240.45,130h-1.33l-3.14-10h1.24a.56.56,0,0,1,.33.09.48.48,0,0,1,.18.26l2,6.73c0,.13.07.27.1.42s.06.32.1.49c0-.17.06-.33.1-.49a2.58,2.58,0,0,1,.12-.42l2.27-6.73a.53.53,0,0,1,.18-.25.51.51,0,0,1,.32-.1h.43a.47.47,0,0,1,.32.1.45.45,0,0,1,.18.25l2.26,6.73a6.77,6.77,0,0,1,.23.87,8.28,8.28,0,0,1,.18-.87l2-6.73a.45.45,0,0,1,.17-.25.56.56,0,0,1,.33-.1Z" transform="translate(-29.83 -28.08)"/><path class="cls-2" d="M253.37,130h-1.5v-10h1.5Z" transform="translate(-29.83 -28.08)"/><path class="cls-2" d="M261.36,121.54a.49.49,0,0,1-.14.17.32.32,0,0,1-.2.06.53.53,0,0,1-.29-.12l-.4-.26a3.56,3.56,0,0,0-.58-.26,2.66,2.66,0,0,0-.8-.11,2.55,2.55,0,0,0-.77.11,1.68,1.68,0,0,0-.56.32,1.32,1.32,0,0,0-.34.47,1.4,1.4,0,0,0-.11.58,1,1,0,0,0,.2.67,1.88,1.88,0,0,0,.54.46,3.88,3.88,0,0,0,.77.33l.87.29a7.32,7.32,0,0,1,.88.35,3,3,0,0,1,.76.49,2.27,2.27,0,0,1,.75,1.78,3.47,3.47,0,0,1-.23,1.25,3,3,0,0,1-.66,1,3,3,0,0,1-1.07.68,3.81,3.81,0,0,1-1.44.25,4.73,4.73,0,0,1-.93-.09,3.92,3.92,0,0,1-.86-.27,3.68,3.68,0,0,1-.76-.41,3.73,3.73,0,0,1-.64-.54l.43-.72a.67.67,0,0,1,.15-.14.42.42,0,0,1,.2,0,.58.58,0,0,1,.34.15c.13.1.28.22.47.34a3.91,3.91,0,0,0,.68.34,2.78,2.78,0,0,0,1,.15,2.62,2.62,0,0,0,.82-.12,1.66,1.66,0,0,0,.61-.35,1.45,1.45,0,0,0,.39-.55,2,2,0,0,0,.13-.71,1.2,1.2,0,0,0-.2-.72,1.64,1.64,0,0,0-.54-.47,3.36,3.36,0,0,0-.77-.32l-.87-.28c-.3-.1-.59-.21-.88-.33a2.94,2.94,0,0,1-.76-.5,2.27,2.27,0,0,1-.54-.76,2.89,2.89,0,0,1-.2-1.13,2.65,2.65,0,0,1,.21-1,2.61,2.61,0,0,1,.61-.9,3.09,3.09,0,0,1,1-.62,3.54,3.54,0,0,1,1.35-.23,4.31,4.31,0,0,1,1.55.27,3.51,3.51,0,0,1,1.24.77Z" transform="translate(-29.83 -28.08)"/><path class="cls-2" d="M271.12,127.79a.3.3,0,0,1,.22.1l.59.65a4.17,4.17,0,0,1-1.5,1.12,5.09,5.09,0,0,1-2.13.4,4.86,4.86,0,0,1-2-.38,4.27,4.27,0,0,1-1.51-1.05,4.84,4.84,0,0,1-1-1.63,6,6,0,0,1-.35-2.08,5.77,5.77,0,0,1,.36-2.07,4.65,4.65,0,0,1,2.57-2.69,5.25,5.25,0,0,1,2-.37,4.74,4.74,0,0,1,1.9.35,4.63,4.63,0,0,1,1.45.93l-.49.69a.49.49,0,0,1-.12.13.36.36,0,0,1-.19,0,.56.56,0,0,1-.31-.14,4.94,4.94,0,0,0-.47-.3,5.11,5.11,0,0,0-.72-.29,3.58,3.58,0,0,0-1.06-.14,3.47,3.47,0,0,0-1.38.27,3,3,0,0,0-1.07.75,3.44,3.44,0,0,0-.7,1.21,5.34,5.34,0,0,0,0,3.26,3.62,3.62,0,0,0,.71,1.21,3.06,3.06,0,0,0,1.07.75,3.29,3.29,0,0,0,1.33.26,6,6,0,0,0,.78-.05,3.52,3.52,0,0,0,.64-.16,2.81,2.81,0,0,0,.55-.27,4.33,4.33,0,0,0,.51-.39.42.42,0,0,1,.12-.08A.22.22,0,0,1,271.12,127.79Z" transform="translate(-29.83 -28.08)"/><path class="cls-2" d="M282.9,124.92a5.69,5.69,0,0,1-.36,2.07,4.79,4.79,0,0,1-1,1.63,4.63,4.63,0,0,1-1.57,1.06,5.64,5.64,0,0,1-4.07,0,4.58,4.58,0,0,1-1.58-1.06,5.12,5.12,0,0,1-1-1.63,5.69,5.69,0,0,1-.36-2.07,5.75,5.75,0,0,1,.36-2.06,5.12,5.12,0,0,1,1-1.63,4.58,4.58,0,0,1,1.58-1.06,5.64,5.64,0,0,1,4.07,0,4.63,4.63,0,0,1,1.57,1.06,4.79,4.79,0,0,1,1,1.63A5.75,5.75,0,0,1,282.9,124.92Zm-1.52,0a5.08,5.08,0,0,0-.25-1.61,3.44,3.44,0,0,0-.7-1.21,3,3,0,0,0-1.09-.76,3.92,3.92,0,0,0-2.86,0,3.15,3.15,0,0,0-1.1.76,3.6,3.6,0,0,0-.7,1.21,5.55,5.55,0,0,0,0,3.23,3.7,3.7,0,0,0,.7,1.21,3,3,0,0,0,1.1.75,3.92,3.92,0,0,0,2.86,0,2.88,2.88,0,0,0,1.09-.75,3.53,3.53,0,0,0,.7-1.21A5.06,5.06,0,0,0,281.38,124.92Z" transform="translate(-29.83 -28.08)"/><path class="cls-2" d="M293.28,119.9v10h-.75a.6.6,0,0,1-.29-.06.75.75,0,0,1-.24-.21l-5.68-7.34,0,.37c0,.12,0,.24,0,.35V130h-1.31v-10h.77a.71.71,0,0,1,.29,0,.6.6,0,0,1,.22.21L292,127.5l0-.4c0-.12,0-.24,0-.36V119.9Z" transform="translate(-29.83 -28.08)"/><path class="cls-2" d="M301.28,121.54a.49.49,0,0,1-.14.17.32.32,0,0,1-.2.06.53.53,0,0,1-.29-.12l-.4-.26a3.56,3.56,0,0,0-.58-.26,2.66,2.66,0,0,0-.8-.11,2.55,2.55,0,0,0-.77.11,1.68,1.68,0,0,0-.56.32,1.32,1.32,0,0,0-.34.47,1.4,1.4,0,0,0-.12.58,1,1,0,0,0,.21.67,1.88,1.88,0,0,0,.54.46,3.88,3.88,0,0,0,.77.33l.87.29a7.32,7.32,0,0,1,.88.35,3,3,0,0,1,.76.49,2.27,2.27,0,0,1,.75,1.78,3.47,3.47,0,0,1-.23,1.25,3,3,0,0,1-.66,1,3,3,0,0,1-1.07.68,3.81,3.81,0,0,1-1.44.25,4.73,4.73,0,0,1-.93-.09,3.92,3.92,0,0,1-.86-.27,3.68,3.68,0,0,1-.76-.41,3.73,3.73,0,0,1-.64-.54l.43-.72a.67.67,0,0,1,.15-.14.42.42,0,0,1,.2,0,.58.58,0,0,1,.34.15c.13.1.28.22.47.34a3.91,3.91,0,0,0,.68.34,2.78,2.78,0,0,0,1,.15,2.62,2.62,0,0,0,.82-.12,1.66,1.66,0,0,0,.61-.35,1.45,1.45,0,0,0,.39-.55,2,2,0,0,0,.13-.71,1.2,1.2,0,0,0-.2-.72,1.64,1.64,0,0,0-.54-.47,3.36,3.36,0,0,0-.77-.32l-.87-.28c-.3-.1-.59-.21-.88-.33a2.94,2.94,0,0,1-.76-.5,2.27,2.27,0,0,1-.54-.76,2.89,2.89,0,0,1-.2-1.13,2.65,2.65,0,0,1,.21-1,2.61,2.61,0,0,1,.61-.9,3.09,3.09,0,0,1,1-.62,3.54,3.54,0,0,1,1.35-.23,4.31,4.31,0,0,1,1.55.27,3.51,3.51,0,0,1,1.24.77Z" transform="translate(-29.83 -28.08)"/><path class="cls-2" d="M305.55,130h-1.5v-10h1.5Z" transform="translate(-29.83 -28.08)"/><path class="cls-2" d="M316.65,119.9v10h-.75a.6.6,0,0,1-.29-.06.75.75,0,0,1-.24-.21l-5.67-7.34c0,.13,0,.25,0,.37s0,.24,0,.35V130h-1.31v-10h.77a.8.8,0,0,1,.3,0,.68.68,0,0,1,.21.21l5.69,7.35,0-.4c0-.12,0-.24,0-.36V119.9Z" transform="translate(-29.83 -28.08)"/><path class="cls-2" d="M319.23,124.66h5.61v1h-5.61Z" transform="translate(-29.83 -28.08)"/><path class="cls-2" d="M338,119.9v10h-1.31V122.8c0-.11,0-.22,0-.35s0-.24,0-.37l-3.35,6.14a.55.55,0,0,1-.53.34h-.21a.56.56,0,0,1-.54-.34l-3.41-6.16a6.57,6.57,0,0,1,.05.74V130h-1.31v-10h1.1a.86.86,0,0,1,.31,0,.37.37,0,0,1,.2.21l3.36,6a3.54,3.54,0,0,1,.19.39l.16.4a8,8,0,0,1,.34-.8l3.3-6c.06-.12.12-.19.2-.21a.8.8,0,0,1,.3,0Z" transform="translate(-29.83 -28.08)"/><path class="cls-2" d="M349.13,130H348a.47.47,0,0,1-.32-.1.53.53,0,0,1-.19-.25l-.88-2.33h-4.44l-.88,2.33a.61.61,0,0,1-.19.24.48.48,0,0,1-.32.11h-1.15l4-10h1.5Zm-2.95-3.74-1.49-3.9a7.62,7.62,0,0,1-.32-1c-.05.2-.11.39-.16.56s-.11.33-.16.46l-1.48,3.89Z" transform="translate(-29.83 -28.08)"/><path class="cls-2" d="M359.54,124.92a5.64,5.64,0,0,1-.36,2.06,4.58,4.58,0,0,1-1,1.58,4.71,4.71,0,0,1-1.57,1,5.53,5.53,0,0,1-2,.36h-3.78v-10h3.78a5.53,5.53,0,0,1,2,.36,4.52,4.52,0,0,1,2.59,2.62A5.61,5.61,0,0,1,359.54,124.92Zm-1.52,0a5,5,0,0,0-.25-1.6,3.21,3.21,0,0,0-.7-1.21,3,3,0,0,0-1.09-.75,3.8,3.8,0,0,0-1.43-.26h-2.28v7.65h2.28a3.8,3.8,0,0,0,1.43-.26,3.12,3.12,0,0,0,1.09-.75,3.21,3.21,0,0,0,.7-1.21A5,5,0,0,0,358,124.92Z" transform="translate(-29.83 -28.08)"/><path class="cls-2" d="M363.35,130h-1.5v-10h1.5Z" transform="translate(-29.83 -28.08)"/><path class="cls-2" d="M371.34,121.54a.49.49,0,0,1-.14.17.34.34,0,0,1-.2.06.53.53,0,0,1-.29-.12l-.4-.26a3.56,3.56,0,0,0-.58-.26,2.66,2.66,0,0,0-.8-.11,2.51,2.51,0,0,0-.77.11,1.68,1.68,0,0,0-.56.32,1.32,1.32,0,0,0-.34.47,1.4,1.4,0,0,0-.12.58,1,1,0,0,0,.21.67,1.88,1.88,0,0,0,.54.46,3.88,3.88,0,0,0,.77.33l.87.29a7.32,7.32,0,0,1,.88.35,3.19,3.19,0,0,1,.76.49,2.27,2.27,0,0,1,.75,1.78,3.47,3.47,0,0,1-.23,1.25,3,3,0,0,1-.66,1,3,3,0,0,1-1.07.68,3.81,3.81,0,0,1-1.44.25,4.91,4.91,0,0,1-.94-.09,4.1,4.1,0,0,1-.86-.27,4.28,4.28,0,0,1-.76-.41,4.08,4.08,0,0,1-.63-.54l.43-.72a.67.67,0,0,1,.15-.14.42.42,0,0,1,.2,0,.58.58,0,0,1,.34.15c.13.1.28.22.47.34a3.91,3.91,0,0,0,.68.34,2.76,2.76,0,0,0,1,.15,2.64,2.64,0,0,0,.83-.12,1.66,1.66,0,0,0,.61-.35,1.33,1.33,0,0,0,.38-.55,1.8,1.8,0,0,0,.14-.71,1.14,1.14,0,0,0-.21-.72,1.51,1.51,0,0,0-.53-.47,3.36,3.36,0,0,0-.77-.32l-.87-.28c-.3-.1-.59-.21-.88-.33a2.78,2.78,0,0,1-.76-.5,2.27,2.27,0,0,1-.54-.76,2.89,2.89,0,0,1-.2-1.13,2.65,2.65,0,0,1,.21-1,2.61,2.61,0,0,1,.61-.9,3.09,3.09,0,0,1,1-.62,3.52,3.52,0,0,1,1.34-.23,4.33,4.33,0,0,1,1.56.27,3.51,3.51,0,0,1,1.24.77Z" transform="translate(-29.83 -28.08)"/><path class="cls-2" d="M383.45,124.92a5.69,5.69,0,0,1-.36,2.07,4.79,4.79,0,0,1-1,1.63,4.58,4.58,0,0,1-1.58,1.06,5.64,5.64,0,0,1-4.07,0,4.54,4.54,0,0,1-1.57-1.06,4.79,4.79,0,0,1-1-1.63,5.69,5.69,0,0,1-.36-2.07,5.75,5.75,0,0,1,.36-2.06,4.79,4.79,0,0,1,1-1.63,4.54,4.54,0,0,1,1.57-1.06,5.64,5.64,0,0,1,4.07,0,4.58,4.58,0,0,1,1.58,1.06,4.79,4.79,0,0,1,1,1.63A5.75,5.75,0,0,1,383.45,124.92Zm-1.53,0a5.09,5.09,0,0,0-.24-1.61,3.6,3.6,0,0,0-.7-1.21,3,3,0,0,0-1.09-.76,3.68,3.68,0,0,0-1.43-.27,3.61,3.61,0,0,0-1.43.27,3.06,3.06,0,0,0-1.1.76,3.44,3.44,0,0,0-.7,1.21,5.34,5.34,0,0,0,0,3.23,3.53,3.53,0,0,0,.7,1.21,2.91,2.91,0,0,0,1.1.75,3.61,3.61,0,0,0,1.43.27,3.68,3.68,0,0,0,1.43-.27,2.88,2.88,0,0,0,1.09-.75,3.7,3.7,0,0,0,.7-1.21A5.06,5.06,0,0,0,381.92,124.92Z" transform="translate(-29.83 -28.08)"/><path class="cls-2" d="M393.87,119.9v10h-.75a.6.6,0,0,1-.29-.06.75.75,0,0,1-.24-.21l-5.68-7.34,0,.37c0,.12,0,.24,0,.35V130h-1.31v-10h.77a.71.71,0,0,1,.29,0,.6.6,0,0,1,.22.21l5.69,7.35,0-.4c0-.12,0-.24,0-.36V119.9Z" transform="translate(-29.83 -28.08)"/><path class="cls-3" d="M69.13,151.28a5.33,5.33,0,0,1-1.49-1.64l-.09-.13-.15,0c-25.67-6-40-45.38-36.75-77A69.1,69.1,0,0,1,32.47,62.2a50.27,50.27,0,0,1,3.3-9.05,33.35,33.35,0,0,1,5.31-8c4.27-4.67,9.54-7.18,15.24-7.26.13,0,.51,0,.54-.36a7.74,7.74,0,0,1,5.49-3.72l.26,0,.07-.26a6.65,6.65,0,0,1,6.46-5c5.19,0,6.44,5,6.45,5l.07.27.27,0a7.82,7.82,0,0,1,5.48,3.74c0,.35.4.36.52.37a20.81,20.81,0,0,1,15.25,7.26,34,34,0,0,1,6,9.5l.33.78a60.24,60.24,0,0,1,4.09,17c3.22,31.62-11.08,71-36.74,77l-.16,0-.09.13A5.33,5.33,0,0,1,69.13,151.28Z" transform="translate(-29.83 -28.08)"/><path class="cls-2" d="M108,72.43a68.38,68.38,0,0,0-1.22-7.78,56,56,0,0,0-2-7,45.59,45.59,0,0,0-3.15-7,32.37,32.37,0,0,0-4.19-5.81c-4.3-4.71-9.62-7.32-15.52-7.4h-.13a8.17,8.17,0,0,0-5.89-4.12,7,7,0,0,0-13.54,0,8.17,8.17,0,0,0-5.89,4.12h-.13c-5.89.08-11.21,2.69-15.52,7.4a32.31,32.31,0,0,0-4.18,5.81,44.7,44.7,0,0,0-3.16,7,56,56,0,0,0-2,7,70.68,70.68,0,0,0-1.22,7.78c-3.26,32,11.14,71.39,37.05,77.43.39.59,1.3,1.82,1.79,1.82s1.4-1.23,1.79-1.82C96.83,143.82,111.23,104.46,108,72.43ZM69.13,29.32a5.53,5.53,0,0,1,5.56,3.9,6.91,6.91,0,0,0-5.46,3.5s-.06.13-.1.13-.08-.1-.1-.13a6.91,6.91,0,0,0-5.46-3.5A5.53,5.53,0,0,1,69.13,29.32ZM66.5,35.39a4.93,4.93,0,0,1,2.25,3c.09.37.23.59.38.59s.29-.22.38-.59a5,5,0,0,1,2.25-3,5.94,5.94,0,0,1,8.56,2.24,19.92,19.92,0,0,0-2.37.59,9.3,9.3,0,0,0-3.36,1.87,13.36,13.36,0,0,0-4.31,8.64c-.94,10.35,10.93,8.73,11.53,8.68,1.54,0,2.7-2.42,2.7-5.62s-1.19-5.63-2.7-5.63c-.92,0-2.51.74-2.66,3.61-.1,2,.89,4.7,2.16,4.86.66.09,1.27-1.08,1.45-2.26.17-1,.08-2.65-.84-2.88a.52.52,0,0,0-.65.4c-.07.26.57.71.54,1.89,0,1.78-1.81.89-1.58-1.92.22-2.5,1.49-2.34,1.55-2.34.71,0,1.78,1.48,1.78,4.27,0,2.47-1.19,5.14-3.47,3.74-1.93-1.4-2.68-4.64-2.15-7.14.24-1.15,1.23-4.28,4.43-4.28,4.61,0,8.91,2.43,12.35,6.94C94.34,52.26,92,56.86,84.4,61.26c-.16.08-.4.22-.41.21a15.72,15.72,0,0,0-7-1.38,39.42,39.42,0,0,0-6.57,1,5.7,5.7,0,0,1-1.3.22h0a5.8,5.8,0,0,1-1.3-.22,39.42,39.42,0,0,0-6.57-1,15.75,15.75,0,0,0-7,1.38s-.25-.13-.41-.21c-7.56-4.4-9.94-9-10.31-10.21,3.43-4.51,7.73-6.94,12.34-6.94,3.2,0,4.19,3.13,4.43,4.28.54,2.5-.22,5.74-2.14,7.14-2.29,1.4-3.48-1.27-3.48-3.74,0-2.79,1.07-4.27,1.79-4.27,0,0,1.32-.16,1.54,2.34.24,2.81-1.54,3.7-1.58,1.92,0-1.18.61-1.63.55-1.89a.54.54,0,0,0-.66-.4c-.92.23-1,1.85-.84,2.88.19,1.18.79,2.35,1.45,2.26,1.28-.16,2.26-2.85,2.16-4.86-.15-2.87-1.74-3.61-2.66-3.61-1.51,0-2.7,2.42-2.7,5.63s1.16,5.62,2.7,5.62c.6.05,12.47,1.67,11.53-8.68a13.27,13.27,0,0,0-4.31-8.64,9.3,9.3,0,0,0-3.36-1.87A20.28,20.28,0,0,0,58,37.63,5.93,5.93,0,0,1,66.5,35.39ZM44,78.8c-.29,2-.4,3.65-.45,4.69a62.86,62.86,0,0,0,2.9,21.58,69.85,69.85,0,0,0,5.86,13.2,16.24,16.24,0,0,1-7.29,3.32c-6.56-13-9.9-29.89-9.16-45.07A22.81,22.81,0,0,0,44,78.8Zm-8.09-3.11C36.55,65.34,39.18,57.21,43,51.8,43.67,53.56,46.63,58,53.47,62c-5.81,3.5-8.44,10.71-9.32,16.09A22.31,22.31,0,0,1,35.94,75.69Zm16.78,43.25c4.36,7.51,8.67,12,12,14.36a16.36,16.36,0,0,1-5,6.16c-5.68-3.81-10.49-9.87-14.27-17.17A16.65,16.65,0,0,0,52.72,118.94Zm12.63,14.82a17.41,17.41,0,0,0,3.78,2.08,17.61,17.61,0,0,0,3.79-2.08,17,17,0,0,0,5,6.15,26.62,26.62,0,0,1-5.07,2.52c0-.06,0-.13,0-.19-.37-1.87-2.81-2.25-3.7-2.25s-3.33.38-3.69,2.25l0,.19a26.62,26.62,0,0,1-5.07-2.52A17,17,0,0,0,65.35,133.76Zm8.22-.46c3.3-2.37,7.61-6.85,12-14.36a16.65,16.65,0,0,0,7.31,3.35c-3.78,7.3-8.59,13.36-14.27,17.17A16.36,16.36,0,0,1,73.57,133.3Zm12.36-15a70.45,70.45,0,0,0,5.85-13.2,62.86,62.86,0,0,0,2.9-21.58,45.46,45.46,0,0,0-.45-4.69,22.81,22.81,0,0,0,8.14-2.28c.74,15.18-2.6,32-9.16,45.07A16.17,16.17,0,0,1,85.93,118.27Zm8.18-40.22C93.23,72.67,90.56,65.6,84.8,62c6.83-4,9.79-8.4,10.47-10.16,3.81,5.41,6.44,13.54,7,23.89A22.31,22.31,0,0,1,94.11,78.05Zm-29.2,69.54a33.14,33.14,0,0,1-8.31-4.15,39.28,39.28,0,0,1-4.6-3.71,45.75,45.75,0,0,1-3.33-3.49c-.71-.84-1.4-1.7-2.06-2.57A67.06,67.06,0,0,1,38.71,120a90.41,90.41,0,0,1-4.85-14.44,99.62,99.62,0,0,1-2.53-15.36,91.37,91.37,0,0,1-.1-15.34c.23-2.74.56-5.47,1.05-8.17a55.65,55.65,0,0,1,2-7.94,44.23,44.23,0,0,1,3-6.89,29.82,29.82,0,0,1,4.46-6.28,23,23,0,0,1,5.61-4.39,19.26,19.26,0,0,1,2.74-1.23,14.37,14.37,0,0,1,1.45-.46A13,13,0,0,1,53,39.08a20.06,20.06,0,0,1,3.63-.3,10.74,10.74,0,0,1,5.5,1.49,11.32,11.32,0,0,1,4.72,8.56c.56,6.39-6,7.4-7.24,7.39-.19,0-.3-.19.34-.84a9.24,9.24,0,0,0,1.48-7.23c-.62-2.93-2.69-5.22-5.69-5.22a15.79,15.79,0,0,0-11.49,5.52,32,32,0,0,0-6.33,11.14A60.58,60.58,0,0,0,34.8,75.7a89.14,89.14,0,0,0,.33,15.06,96.7,96.7,0,0,0,2.76,15,86.49,86.49,0,0,0,5,14,62,62,0,0,0,7.76,12.78,36.69,36.69,0,0,0,11.52,9.73,25.52,25.52,0,0,0,3.13,1.36,9.47,9.47,0,0,0,.94,4.39A10,10,0,0,1,64.91,147.59Zm4.66,2.19a.83.83,0,0,1-.44.3.87.87,0,0,1-.44-.3,9.2,9.2,0,0,1-2.14-7.32c.17-.91,1.7-1.32,2.58-1.33s2.41.42,2.58,1.33A9.16,9.16,0,0,1,69.57,149.78Zm37.36-59.63a99.62,99.62,0,0,1-2.53,15.36A90.41,90.41,0,0,1,99.55,120a67.06,67.06,0,0,1-7.9,13.72c-.66.87-1.34,1.73-2.06,2.57a42.16,42.16,0,0,1-3.33,3.49,38.47,38.47,0,0,1-4.6,3.71,33,33,0,0,1-8.31,4.15A10,10,0,0,1,72,148a9.35,9.35,0,0,0,.94-4.39,25.52,25.52,0,0,0,3.13-1.36,36.58,36.58,0,0,0,11.52-9.73,62,62,0,0,0,7.76-12.78,85.54,85.54,0,0,0,5-14,95.54,95.54,0,0,0,2.76-15,88.11,88.11,0,0,0,.33-15.06,60.58,60.58,0,0,0-3.12-16.11A32.18,32.18,0,0,0,94,48.45a15.81,15.81,0,0,0-11.5-5.52c-3,0-5.07,2.29-5.69,5.22a9.28,9.28,0,0,0,1.48,7.23c.64.65.54.84.34.84-1.28,0-7.8-1-7.24-7.39a11.29,11.29,0,0,1,4.73-8.56,10.71,10.71,0,0,1,5.49-1.49,20,20,0,0,1,3.63.3,13,13,0,0,1,1.46.37c.49.13,1,.28,1.46.46a19.65,19.65,0,0,1,2.73,1.23,23.23,23.23,0,0,1,5.62,4.39A29.41,29.41,0,0,1,101,51.81a44.23,44.23,0,0,1,3,6.89,55.65,55.65,0,0,1,2,7.94c.5,2.7.82,5.43,1,8.17A91.37,91.37,0,0,1,106.93,90.15Z" transform="translate(-29.83 -28.08)"/><path class="cls-1" d="M93.27,83.69c-.16-3.81-1.27-15.43-9.18-20.47a13.37,13.37,0,0,0-6.21-1.72c-3.88-.25-6.76,1.23-8.7,1.29h-.1c-1.94-.06-4.84-1.54-8.72-1.29a13.28,13.28,0,0,0-6.19,1.72c-7.9,5-9,16.66-9.18,20.47a61.66,61.66,0,0,0,5,26.88c5.47,12.05,12.07,20.57,18.6,23.47l.52.23.53-.23c6.52-2.9,13.13-11.42,18.6-23.47A61.71,61.71,0,0,0,93.27,83.69Z" transform="translate(-29.83 -28.08)"/><path class="cls-4" d="M80.88,74.55v2.63l.53-.08h.25a1.66,1.66,0,0,1,1.16.39,1.78,1.78,0,0,1,.31,1.57s-5.3,22.93-6.3,27.29c-1.16-5.52-7.45-35.65-7.45-35.65l0-.13H68.1l0,.14-5.46,35.2c-1.19-5.08-6.26-26.82-6.26-26.82a2.75,2.75,0,0,1,0-.4,1.78,1.78,0,0,1,.43-1.34,1.44,1.44,0,0,1,1-.32l.52.07V74.55H49.48V77l.39.06a1.64,1.64,0,0,1,1.35,1.18S61.56,122.65,62,124.54l0,.12h1.55l0-.13c0-.31,4.25-27.84,5-33l6.42,33,0,.12h1.39L86.73,78.25a1.39,1.39,0,0,1,1.44-1.07h.1l.51,0V74.55Z" transform="translate(-29.83 -28.08)"/></svg>