<svg id="UCCS_Signature_-_Standard" data-name="UCCS Signature - Standard" xmlns="http://www.w3.org/2000/svg" viewBox="0 0 678.57 93.09"><defs><style>.cls-1{fill:#231f20;}.cls-2{fill:#cfb87c;}.cls-3{fill:#fff;}</style></defs><g id="Wordmark"><path class="cls-1" d="M274,36.87V57.41a16.16,16.16,0,0,0,.65,4.9,8.22,8.22,0,0,0,1.91,3.3,7.34,7.34,0,0,0,3.07,1.86,13.23,13.23,0,0,0,4.08.58,13.44,13.44,0,0,0,4.14-.58A7.34,7.34,0,0,0,291,65.61a8.09,8.09,0,0,0,1.9-3.3,15.85,15.85,0,0,0,.65-4.9V36.87h3.16V58.11A16.56,16.56,0,0,1,296,63a10.38,10.38,0,0,1-6.28,6.73,15.54,15.54,0,0,1-5.93,1,15.36,15.36,0,0,1-5.87-1A10.38,10.38,0,0,1,271.59,63a16.24,16.24,0,0,1-.72-4.86V36.87Z" transform="translate(-27.58 -36.17)"/><path class="cls-1" d="M305.35,46.07v4.14h.1a7,7,0,0,1,3-3.51,8.64,8.64,0,0,1,4.69-1.33,11.64,11.64,0,0,1,4.2.66A6.61,6.61,0,0,1,320,47.86a6.76,6.76,0,0,1,1.44,2.91,16.16,16.16,0,0,1,.42,3.85V70.05H319v-15a14.32,14.32,0,0,0-.27-2.86,6.21,6.21,0,0,0-1-2.3,4.75,4.75,0,0,0-1.88-1.53,6.86,6.86,0,0,0-3-.56,7.26,7.26,0,0,0-3.13.63,6.87,6.87,0,0,0-2.33,1.71,8,8,0,0,0-1.48,2.6,10.9,10.9,0,0,0-.59,3.28v14h-2.93v-24Z" transform="translate(-27.58 -36.17)"/><path class="cls-1" d="M330.4,36.87v4.69h-2.92V36.87Zm0,9.2v24h-2.92v-24Z" transform="translate(-27.58 -36.17)"/><path class="cls-1" d="M336.59,46.07l7.53,21.06h.09l7.44-21.06h3l-9,24h-3.11l-9.25-24Z" transform="translate(-27.58 -36.17)"/><path class="cls-1" d="M359.71,62.13a8.67,8.67,0,0,0,1.42,3,8.11,8.11,0,0,0,2.46,2.23,6.86,6.86,0,0,0,3.58.88,7.1,7.1,0,0,0,5-1.67,8.8,8.8,0,0,0,2.51-4.46h2.92a11.7,11.7,0,0,1-3.41,6.33c-1.66,1.48-4,2.22-7,2.22a11.07,11.07,0,0,1-4.9-1A8.82,8.82,0,0,1,358.9,67a11.93,11.93,0,0,1-1.94-4,18.76,18.76,0,0,1-.62-4.86,17.65,17.65,0,0,1,.62-4.64,12.46,12.46,0,0,1,1.94-4.07,9.68,9.68,0,0,1,3.37-2.89,10.42,10.42,0,0,1,4.9-1.09,9.51,9.51,0,0,1,8.25,4.21,12.53,12.53,0,0,1,1.83,4.32,19.16,19.16,0,0,1,.47,5H359.26A12.75,12.75,0,0,0,359.71,62.13Zm14.5-9a9,9,0,0,0-1.51-2.72,7.59,7.59,0,0,0-2.37-1.9,6.78,6.78,0,0,0-3.16-.72,6.9,6.9,0,0,0-3.21.72,7.59,7.59,0,0,0-2.37,1.9A9.73,9.73,0,0,0,360,53.21a14.1,14.1,0,0,0-.77,3.17h15.53A10.71,10.71,0,0,0,374.21,53.18Z" transform="translate(-27.58 -36.17)"/><path class="cls-1" d="M384.36,46.07V51.7h.1a8.78,8.78,0,0,1,9.06-6v2.93a8.89,8.89,0,0,0-3.63.54,8.06,8.06,0,0,0-4.65,4.55,9.33,9.33,0,0,0-.65,3.51V70.05h-2.92v-24Z" transform="translate(-27.58 -36.17)"/><path class="cls-1" d="M410.11,50.74a4.89,4.89,0,0,0-1.37-1.65,5.89,5.89,0,0,0-2-1,9.5,9.5,0,0,0-2.37-.29,10.29,10.29,0,0,0-2,.2,6.38,6.38,0,0,0-1.83.7A3.86,3.86,0,0,0,399.24,50a3.54,3.54,0,0,0-.52,1.95,2.78,2.78,0,0,0,.49,1.65,4.56,4.56,0,0,0,1.24,1.15,8,8,0,0,0,1.62.76c.59.2,1.13.36,1.63.49l3.9.88a11.36,11.36,0,0,1,2.49.67,8.24,8.24,0,0,1,2.18,1.28,6.37,6.37,0,0,1,1.56,1.95,5.93,5.93,0,0,1,.6,2.75,6,6,0,0,1-.88,3.32,7.08,7.08,0,0,1-2.26,2.23,9.65,9.65,0,0,1-3.08,1.23,15.94,15.94,0,0,1-3.4.37,11,11,0,0,1-6.85-2c-1.75-1.33-2.75-3.46-3-6.41h2.93a5.76,5.76,0,0,0,2.16,4.49,7.81,7.81,0,0,0,4.9,1.5,10.71,10.71,0,0,0,2.21-.23,7.22,7.22,0,0,0,2.11-.78,5.06,5.06,0,0,0,1.61-1.43,3.51,3.51,0,0,0,.62-2.11,3.41,3.41,0,0,0-.43-1.79,4,4,0,0,0-1.19-1.21,8,8,0,0,0-1.69-.81c-.64-.21-1.28-.4-1.94-.55l-3.76-.84a22.92,22.92,0,0,1-2.65-.86,8.44,8.44,0,0,1-2.11-1.21,5,5,0,0,1-1.42-1.77,5.84,5.84,0,0,1-.51-2.58,5.65,5.65,0,0,1,.81-3.11,6.2,6.2,0,0,1,2.11-2.09,10,10,0,0,1,2.91-1.17,14.51,14.51,0,0,1,3.18-.37,11.85,11.85,0,0,1,3.38.47,7.68,7.68,0,0,1,2.73,1.44,7,7,0,0,1,1.89,2.41,8.64,8.64,0,0,1,.78,3.4h-2.92A5.54,5.54,0,0,0,410.11,50.74Z" transform="translate(-27.58 -36.17)"/><path class="cls-1" d="M421.64,36.87v4.69h-2.93V36.87Zm0,9.2v24h-2.93v-24Z" transform="translate(-27.58 -36.17)"/><path class="cls-1" d="M436.78,46.07v2.46h-4.87V64.71a5.12,5.12,0,0,0,.4,2.25c.26.54.92.85,2,.91a23.27,23.27,0,0,0,2.5-.14v2.46c-.43,0-.86,0-1.3,0s-.86.05-1.3.05c-1.95,0-3.31-.38-4.09-1.14S428.94,67,429,64.94V48.53H424.8V46.07H429v-7.2h2.93v7.2Z" transform="translate(-27.58 -36.17)"/><path class="cls-1" d="M441.43,46.07l7.91,20.45,7.38-20.45h2.93L449.24,73.68A24.57,24.57,0,0,1,448,76.21a5.7,5.7,0,0,1-1.23,1.58,4,4,0,0,1-1.58.84,8.67,8.67,0,0,1-2.3.25l-1.37-.07a2.68,2.68,0,0,1-.85-.16V76.19l1,.16a8.12,8.12,0,0,0,1,.07,3.86,3.86,0,0,0,1.6-.28,3.41,3.41,0,0,0,1.1-.77,5,5,0,0,0,.79-1.18l.69-1.53,1-2.7-9.58-23.89Z" transform="translate(-27.58 -36.17)"/><path class="cls-1" d="M490.44,46.4A10.52,10.52,0,0,1,494,49.14a12,12,0,0,1,2.18,4,16.41,16.41,0,0,1,0,9.81A12,12,0,0,1,494,67a10.32,10.32,0,0,1-3.56,2.71,12.29,12.29,0,0,1-9.71,0A10.41,10.41,0,0,1,477.17,67,11.84,11.84,0,0,1,475,63a16.41,16.41,0,0,1,0-9.81,11.84,11.84,0,0,1,2.18-4,10.62,10.62,0,0,1,3.56-2.74,12,12,0,0,1,9.71,0Zm-8.53,2.32A8,8,0,0,0,479.29,51a10.5,10.5,0,0,0-1.58,3.28,13.22,13.22,0,0,0,0,7.48,10.29,10.29,0,0,0,1.58,3.28,8,8,0,0,0,2.62,2.32,8.09,8.09,0,0,0,7.34,0,8.08,8.08,0,0,0,2.64-2.32,10.71,10.71,0,0,0,1.57-3.28,13.22,13.22,0,0,0,0-7.48A10.94,10.94,0,0,0,491.89,51a8.08,8.08,0,0,0-2.64-2.32,8.09,8.09,0,0,0-7.34,0Z" transform="translate(-27.58 -36.17)"/><path class="cls-1" d="M505.8,48.53V70.05h-2.92V48.53h-4.09V46.07h4.09V43.89a16.79,16.79,0,0,1,.22-2.84,5.56,5.56,0,0,1,.89-2.23,4.22,4.22,0,0,1,1.79-1.44,7.08,7.08,0,0,1,2.9-.51c.44,0,.84,0,1.21,0s.79.08,1.26.15v2.5L510,39.4a8.74,8.74,0,0,0-1-.07,3.87,3.87,0,0,0-1.86.37,2.28,2.28,0,0,0-1,1,4.18,4.18,0,0,0-.35,1.46c0,.56,0,1.16,0,1.81v2.09h4.74v2.46Z" transform="translate(-27.58 -36.17)"/><path class="cls-1" d="M549.7,43.49A9.25,9.25,0,0,0,547.37,41a10.31,10.31,0,0,0-3-1.56,11.33,11.33,0,0,0-3.46-.53,12,12,0,0,0-5.67,1.25,11.11,11.11,0,0,0-3.88,3.33,14.12,14.12,0,0,0-2.23,4.67,20.09,20.09,0,0,0,0,10.66,14.27,14.27,0,0,0,2.23,4.7,11.19,11.19,0,0,0,3.88,3.32,12,12,0,0,0,5.67,1.25,9.8,9.8,0,0,0,7.39-3.11,11.44,11.44,0,0,0,2.18-3.37,14.15,14.15,0,0,0,1.07-4.16h3.16a17.76,17.76,0,0,1-1.44,5.53,13.57,13.57,0,0,1-2.88,4.19,12.31,12.31,0,0,1-4.16,2.64,14.56,14.56,0,0,1-5.32.93A15.66,15.66,0,0,1,534,69.29a14.38,14.38,0,0,1-4.91-3.79A16.28,16.28,0,0,1,526.2,60a22.38,22.38,0,0,1,0-13.1,16.57,16.57,0,0,1,2.93-5.51A14.31,14.31,0,0,1,534,37.59a16.57,16.57,0,0,1,11.48-.72,13.4,13.4,0,0,1,4.08,2.06,12,12,0,0,1,3.07,3.38,11.36,11.36,0,0,1,1.56,4.6h-3.16A10.81,10.81,0,0,0,549.7,43.49Z" transform="translate(-27.58 -36.17)"/><path class="cls-1" d="M574,46.4a10.56,10.56,0,0,1,3.57,2.74,12.19,12.19,0,0,1,2.18,4,16.63,16.63,0,0,1,0,9.81,12.19,12.19,0,0,1-2.18,4A10.35,10.35,0,0,1,574,69.7a12.26,12.26,0,0,1-9.7,0A10.13,10.13,0,0,1,560.69,67a12,12,0,0,1-2.19-4,16.63,16.63,0,0,1,0-9.81,12,12,0,0,1,2.19-4,10.33,10.33,0,0,1,3.56-2.74,11.93,11.93,0,0,1,9.7,0Zm-8.52,2.32A8.15,8.15,0,0,0,562.8,51a11,11,0,0,0-1.58,3.28,13.46,13.46,0,0,0,0,7.48,10.73,10.73,0,0,0,1.58,3.28,8.15,8.15,0,0,0,2.63,2.32,8.09,8.09,0,0,0,7.34,0,8,8,0,0,0,2.63-2.32A10.51,10.51,0,0,0,577,61.8a13.22,13.22,0,0,0,0-7.48A10.73,10.73,0,0,0,575.4,51a8,8,0,0,0-2.63-2.32,8.09,8.09,0,0,0-7.34,0Z" transform="translate(-27.58 -36.17)"/><path class="cls-1" d="M587.78,36.87V70.05h-2.93V36.87Z" transform="translate(-27.58 -36.17)"/><path class="cls-1" d="M608.39,46.4A10.52,10.52,0,0,1,612,49.14a11.84,11.84,0,0,1,2.18,4,16.63,16.63,0,0,1,0,9.81A11.84,11.84,0,0,1,612,67a10.32,10.32,0,0,1-3.56,2.71,12.29,12.29,0,0,1-9.71,0A10.41,10.41,0,0,1,595.12,67a12,12,0,0,1-2.18-4,16.63,16.63,0,0,1,0-9.81,12,12,0,0,1,2.18-4,10.62,10.62,0,0,1,3.56-2.74,12,12,0,0,1,9.71,0Zm-8.52,2.32A8,8,0,0,0,597.24,51a10.73,10.73,0,0,0-1.58,3.28,13.22,13.22,0,0,0,0,7.48,10.51,10.51,0,0,0,1.58,3.28,8,8,0,0,0,2.63,2.32,8.09,8.09,0,0,0,7.34,0,8.15,8.15,0,0,0,2.63-2.32,10.73,10.73,0,0,0,1.58-3.28,13.46,13.46,0,0,0,0-7.48A11,11,0,0,0,609.84,51a8.15,8.15,0,0,0-2.63-2.32,8.09,8.09,0,0,0-7.34,0Z" transform="translate(-27.58 -36.17)"/><path class="cls-1" d="M621.94,46.07V51.7H622a9.25,9.25,0,0,1,3.47-4.52,9.1,9.1,0,0,1,5.6-1.44v2.93a8.83,8.83,0,0,0-3.63.54,8.06,8.06,0,0,0-4.65,4.55,9.33,9.33,0,0,0-.64,3.51V70.05h-2.94v-24Z" transform="translate(-27.58 -36.17)"/><path class="cls-1" d="M634.49,49.79a6.85,6.85,0,0,1,2-2.51,8.57,8.57,0,0,1,3-1.44,14.64,14.64,0,0,1,3.82-.47,16.92,16.92,0,0,1,3.16.31,7.62,7.62,0,0,1,2.83,1.13,6.37,6.37,0,0,1,2.05,2.35,8.45,8.45,0,0,1,.79,3.93V65.82a1.54,1.54,0,0,0,1.72,1.77,2.18,2.18,0,0,0,.93-.19v2.47c-.34.06-.64.11-.9.14a9.49,9.49,0,0,1-1,0,4.39,4.39,0,0,1-1.78-.3,2.37,2.37,0,0,1-1.05-.86,3.2,3.2,0,0,1-.49-1.33,11,11,0,0,1-.11-1.69h-.1a21.57,21.57,0,0,1-1.6,2.07,7.86,7.86,0,0,1-4.09,2.44,12.92,12.92,0,0,1-3,.32,12,12,0,0,1-3.13-.39,7.05,7.05,0,0,1-2.56-1.26,6,6,0,0,1-1.72-2.18,7.24,7.24,0,0,1-.63-3.14,6.25,6.25,0,0,1,1.12-3.93,7,7,0,0,1,2.95-2.16,17.1,17.1,0,0,1,4.13-1c1.54-.21,3.1-.4,4.68-.58.62-.07,1.16-.14,1.62-.24a2.78,2.78,0,0,0,1.16-.48,2.37,2.37,0,0,0,.73-1,4.08,4.08,0,0,0,.25-1.58,5.3,5.3,0,0,0-.49-2.44,3.86,3.86,0,0,0-1.35-1.51,5.59,5.59,0,0,0-2-.77,14.55,14.55,0,0,0-2.45-.2,7.42,7.42,0,0,0-4.55,1.32,5.21,5.21,0,0,0-1.86,4.26h-2.92A9.78,9.78,0,0,1,634.49,49.79ZM649.13,57a1.72,1.72,0,0,1-1.08.74,9.19,9.19,0,0,1-1.38.32c-1.24.22-2.53.41-3.84.58a21.06,21.06,0,0,0-3.6.78,6.85,6.85,0,0,0-2.67,1.46,3.48,3.48,0,0,0-1,2.72,4.3,4.3,0,0,0,.44,2A4.78,4.78,0,0,0,637.14,67a5.14,5.14,0,0,0,1.72.95,6.12,6.12,0,0,0,2,.32,10.06,10.06,0,0,0,3.2-.5,7.91,7.91,0,0,0,2.67-1.49,7,7,0,0,0,2.49-5.53V57Z" transform="translate(-27.58 -36.17)"/><path class="cls-1" d="M676.41,70.05V65.5h-.09a6.72,6.72,0,0,1-1.38,2.13,8.84,8.84,0,0,1-2.07,1.66,11.11,11.11,0,0,1-2.48,1,9.6,9.6,0,0,1-2.63.37,10.6,10.6,0,0,1-4.76-1A9.47,9.47,0,0,1,659.63,67a11.85,11.85,0,0,1-2-4,18.73,18.73,0,0,1,0-9.71,11.81,11.81,0,0,1,2-4.05A9.85,9.85,0,0,1,663,46.4a10.34,10.34,0,0,1,4.76-1,10.89,10.89,0,0,1,2.63.33,8.9,8.9,0,0,1,2.4,1,8.64,8.64,0,0,1,2,1.65,6.81,6.81,0,0,1,1.33,2.28h.09V36.87h2.93V70.05Zm-16.06-8.3a10.1,10.1,0,0,0,1.4,3.28,7.57,7.57,0,0,0,2.43,2.35,6.82,6.82,0,0,0,3.58.9,7.9,7.9,0,0,0,3.93-.9A7.68,7.68,0,0,0,674.3,65a9.75,9.75,0,0,0,1.44-3.28,15.69,15.69,0,0,0,0-7.38,9.84,9.84,0,0,0-1.44-3.28,7.89,7.89,0,0,0-2.61-2.35,7.8,7.8,0,0,0-3.93-.9,6.73,6.73,0,0,0-3.58.9,7.79,7.79,0,0,0-2.43,2.35,10.2,10.2,0,0,0-1.4,3.28,15.69,15.69,0,0,0,0,7.38Z" transform="translate(-27.58 -36.17)"/><path class="cls-1" d="M699.67,46.4a10.52,10.52,0,0,1,3.56,2.74,12.19,12.19,0,0,1,2.18,4,16.63,16.63,0,0,1,0,9.81,12.19,12.19,0,0,1-2.18,4,10.32,10.32,0,0,1-3.56,2.71,12.29,12.29,0,0,1-9.71,0A10.22,10.22,0,0,1,686.4,67a11.84,11.84,0,0,1-2.18-4,16.63,16.63,0,0,1,0-9.81,11.84,11.84,0,0,1,2.18-4A10.42,10.42,0,0,1,690,46.4a12,12,0,0,1,9.71,0Zm-8.53,2.32A8,8,0,0,0,688.52,51a10.75,10.75,0,0,0-1.59,3.28,13.46,13.46,0,0,0,0,7.48,10.53,10.53,0,0,0,1.59,3.28,8,8,0,0,0,2.62,2.32,8.09,8.09,0,0,0,7.34,0,8,8,0,0,0,2.63-2.32,10.29,10.29,0,0,0,1.58-3.28,13.22,13.22,0,0,0,0-7.48A10.5,10.5,0,0,0,701.11,51a8,8,0,0,0-2.63-2.32,8.09,8.09,0,0,0-7.34,0Z" transform="translate(-27.58 -36.17)"/><path class="cls-1" d="M294.09,93.17a9.57,9.57,0,0,0-2.33-2.53,10.51,10.51,0,0,0-3-1.56,11.44,11.44,0,0,0-3.47-.53,12,12,0,0,0-5.67,1.25,11.38,11.38,0,0,0-3.88,3.32,14.26,14.26,0,0,0-2.23,4.68,20.09,20.09,0,0,0,0,10.66,14.17,14.17,0,0,0,2.23,4.7,11.28,11.28,0,0,0,3.88,3.32,12,12,0,0,0,5.67,1.26,9.85,9.85,0,0,0,7.39-3.12,11.85,11.85,0,0,0,2.18-3.37,13.77,13.77,0,0,0,1.07-4.16h3.16a17.76,17.76,0,0,1-1.44,5.53,13.41,13.41,0,0,1-2.88,4.18,12.46,12.46,0,0,1-4.16,2.66,14.77,14.77,0,0,1-5.32.92,15.77,15.77,0,0,1-6.86-1.41,14.34,14.34,0,0,1-4.9-3.79,16.28,16.28,0,0,1-2.93-5.49,22.63,22.63,0,0,1,0-13.11,16.62,16.62,0,0,1,2.93-5.5,14.27,14.27,0,0,1,4.9-3.81,16.57,16.57,0,0,1,11.48-.72A13.25,13.25,0,0,1,294,88.62,11.8,11.8,0,0,1,297.06,92a11.36,11.36,0,0,1,1.56,4.59h-3.16A10.84,10.84,0,0,0,294.09,93.17Z" transform="translate(-27.58 -36.17)"/><path class="cls-1" d="M318.35,96.08a10.48,10.48,0,0,1,3.55,2.74,11.94,11.94,0,0,1,2.19,4,16.63,16.63,0,0,1,0,9.81,12,12,0,0,1-2.19,4,10.28,10.28,0,0,1-3.55,2.71,12.29,12.29,0,0,1-9.71,0,10.22,10.22,0,0,1-3.56-2.71,11.67,11.67,0,0,1-2.18-4,16.41,16.41,0,0,1,0-9.81,11.58,11.58,0,0,1,2.18-4,10.42,10.42,0,0,1,3.56-2.74,12.06,12.06,0,0,1,9.71,0Zm-8.53,2.33a8,8,0,0,0-2.63,2.31,11,11,0,0,0-1.58,3.28,13.46,13.46,0,0,0,0,7.48,10.73,10.73,0,0,0,1.58,3.28,8,8,0,0,0,2.63,2.32,8,8,0,0,0,7.34,0,8.15,8.15,0,0,0,2.63-2.32,10.51,10.51,0,0,0,1.58-3.28,13.46,13.46,0,0,0,0-7.48,10.73,10.73,0,0,0-1.58-3.28,8.12,8.12,0,0,0-2.63-2.31,8,8,0,0,0-7.34,0Z" transform="translate(-27.58 -36.17)"/><path class="cls-1" d="M332.17,86.55v33.19h-2.93V86.55Z" transform="translate(-27.58 -36.17)"/><path class="cls-1" d="M352.78,96.08a10.52,10.52,0,0,1,3.56,2.74,12.11,12.11,0,0,1,2.19,4,16.63,16.63,0,0,1,0,9.81,12.21,12.21,0,0,1-2.19,4,10.32,10.32,0,0,1-3.56,2.71,12.29,12.29,0,0,1-9.71,0,10.41,10.41,0,0,1-3.56-2.71,12,12,0,0,1-2.18-4,16.63,16.63,0,0,1,0-9.81,11.92,11.92,0,0,1,2.18-4,10.62,10.62,0,0,1,3.56-2.74,12.06,12.06,0,0,1,9.71,0Zm-8.53,2.33a8.09,8.09,0,0,0-2.62,2.31,10.73,10.73,0,0,0-1.58,3.28,13.22,13.22,0,0,0,0,7.48,10.51,10.51,0,0,0,1.58,3.28,8.11,8.11,0,0,0,2.62,2.32,8,8,0,0,0,7.35,0,7.91,7.91,0,0,0,2.62-2.32,10.29,10.29,0,0,0,1.58-3.28,13.22,13.22,0,0,0,0-7.48,10.5,10.5,0,0,0-1.58-3.28,7.89,7.89,0,0,0-2.62-2.31,8,8,0,0,0-7.35,0Z" transform="translate(-27.58 -36.17)"/><path class="cls-1" d="M366.33,95.75v5.63h.1a8.78,8.78,0,0,1,9.05-5.95v2.93a8.67,8.67,0,0,0-3.62.53,8.29,8.29,0,0,0-2.81,1.79,7.88,7.88,0,0,0-1.83,2.77,9.05,9.05,0,0,0-.65,3.5v12.79h-2.94v-24Z" transform="translate(-27.58 -36.17)"/><path class="cls-1" d="M378.88,99.47a7,7,0,0,1,2-2.51,8.53,8.53,0,0,1,3-1.44,14.57,14.57,0,0,1,3.81-.46,16.91,16.91,0,0,1,3.16.3,7.62,7.62,0,0,1,2.83,1.13,6.33,6.33,0,0,1,2.05,2.36,8.38,8.38,0,0,1,.79,3.92V115.5a1.55,1.55,0,0,0,1.72,1.77,2.18,2.18,0,0,0,.93-.19v2.47c-.35.06-.64.11-.9.14a9.09,9.09,0,0,1-1,0,4.48,4.48,0,0,1-1.8-.31,2.45,2.45,0,0,1-1-.86,3.21,3.21,0,0,1-.49-1.32,11.15,11.15,0,0,1-.12-1.7h-.09a19,19,0,0,1-1.6,2.07,7.91,7.91,0,0,1-1.82,1.51,8.44,8.44,0,0,1-2.27.93,12.83,12.83,0,0,1-3,.32,12.11,12.11,0,0,1-3.14-.39,7.2,7.2,0,0,1-2.56-1.25,6.1,6.1,0,0,1-1.72-2.19,7.22,7.22,0,0,1-.63-3.13,6.21,6.21,0,0,1,1.12-3.93,7,7,0,0,1,3-2.17,17,17,0,0,1,4.14-1l4.67-.58c.61-.06,1.16-.15,1.63-.24a2.84,2.84,0,0,0,1.16-.48,2.37,2.37,0,0,0,.72-1,4.06,4.06,0,0,0,.25-1.57,5.24,5.24,0,0,0-.49-2.44,3.78,3.78,0,0,0-1.34-1.51,5.35,5.35,0,0,0-2-.77,13.44,13.44,0,0,0-2.44-.21,7.37,7.37,0,0,0-4.56,1.33,5.15,5.15,0,0,0-1.85,4.25H378A9.59,9.59,0,0,1,378.88,99.47Zm14.64,7.16a1.67,1.67,0,0,1-1.07.74,9.54,9.54,0,0,1-1.4.33c-1.23.21-2.51.41-3.83.58a21.09,21.09,0,0,0-3.6.77,6.87,6.87,0,0,0-2.67,1.46,3.48,3.48,0,0,0-1.05,2.72,4.3,4.3,0,0,0,.44,2,4.9,4.9,0,0,0,1.19,1.49,5.14,5.14,0,0,0,1.72,1,6.17,6.17,0,0,0,2,.33,10.36,10.36,0,0,0,3.2-.51,8,8,0,0,0,2.68-1.49,7.33,7.33,0,0,0,1.81-2.37,7.15,7.15,0,0,0,.67-3.16v-3.81Z" transform="translate(-27.58 -36.17)"/><path class="cls-1" d="M420.8,119.74v-4.56h-.09a6.86,6.86,0,0,1-1.37,2.13,9.21,9.21,0,0,1-2.07,1.66,10.74,10.74,0,0,1-2.49,1,9.6,9.6,0,0,1-2.63.37,10.6,10.6,0,0,1-4.76-1,9.57,9.57,0,0,1-3.37-2.74,11.57,11.57,0,0,1-2-4,18.49,18.49,0,0,1,0-9.72,11.61,11.61,0,0,1,2-4,9.76,9.76,0,0,1,3.37-2.77,11.38,11.38,0,0,1,7.39-.7,8.72,8.72,0,0,1,2.4,1,8.44,8.44,0,0,1,2,1.65,6.81,6.81,0,0,1,1.33,2.28h.09V86.55h2.93v33.19Zm-16.06-8.3a10.14,10.14,0,0,0,1.4,3.27,7.72,7.72,0,0,0,2.44,2.35,6.76,6.76,0,0,0,3.57.91,7.55,7.55,0,0,0,6.54-3.26,9.79,9.79,0,0,0,1.44-3.27,15.73,15.73,0,0,0,0-7.39,9.93,9.93,0,0,0-1.44-3.28,7.51,7.51,0,0,0-6.54-3.25,6.76,6.76,0,0,0-3.57.9,7.72,7.72,0,0,0-2.44,2.35,10.29,10.29,0,0,0-1.4,3.28,15.73,15.73,0,0,0,0,7.39Z" transform="translate(-27.58 -36.17)"/><path class="cls-1" d="M444.06,96.08a10.38,10.38,0,0,1,3.55,2.74,11.76,11.76,0,0,1,2.19,4,16.63,16.63,0,0,1,0,9.81,11.86,11.86,0,0,1-2.19,4,10.19,10.19,0,0,1-3.55,2.71,12.29,12.29,0,0,1-9.71,0,10.32,10.32,0,0,1-3.56-2.71,11.84,11.84,0,0,1-2.18-4,16.41,16.41,0,0,1,0-9.81,11.74,11.74,0,0,1,2.18-4,10.52,10.52,0,0,1,3.56-2.74,12.06,12.06,0,0,1,9.71,0Zm-8.53,2.33a8,8,0,0,0-2.62,2.31,10.5,10.5,0,0,0-1.58,3.28,13.22,13.22,0,0,0,0,7.48,10.29,10.29,0,0,0,1.58,3.28,8,8,0,0,0,2.62,2.32,8,8,0,0,0,7.35,0,8.25,8.25,0,0,0,2.63-2.32,10.71,10.71,0,0,0,1.57-3.28,13.46,13.46,0,0,0,0-7.48,10.94,10.94,0,0,0-1.57-3.28,8.22,8.22,0,0,0-2.63-2.31,8,8,0,0,0-7.35,0Z" transform="translate(-27.58 -36.17)"/><path class="cls-1" d="M470.67,113.09a6.94,6.94,0,0,0,2.3,2.74,9.57,9.57,0,0,0,3.46,1.46,19.45,19.45,0,0,0,4.28.45,12,12,0,0,0,2.83-.38,9.71,9.71,0,0,0,2.86-1.18,7.38,7.38,0,0,0,2.21-2.1,5.23,5.23,0,0,0,.88-3.08,4.43,4.43,0,0,0-.63-2.42,5.54,5.54,0,0,0-1.62-1.72,9.31,9.31,0,0,0-2.22-1.14,23.36,23.36,0,0,0-2.36-.72l-7.39-1.81a22.55,22.55,0,0,1-2.81-.93,8,8,0,0,1-2.4-1.49,7,7,0,0,1-1.64-2.27,7.8,7.8,0,0,1-.63-3.3,10.6,10.6,0,0,1,.46-2.85A7.9,7.9,0,0,1,470,89.29a10.17,10.17,0,0,1,3.51-2.44,14.21,14.21,0,0,1,5.72-1,16.82,16.82,0,0,1,4.69.65,11.69,11.69,0,0,1,3.91,2,9.76,9.76,0,0,1,2.67,3.23,9.55,9.55,0,0,1,1,4.48h-3.16a7.73,7.73,0,0,0-.86-3.33,7.6,7.6,0,0,0-2-2.36A8.46,8.46,0,0,0,482.63,89a11.29,11.29,0,0,0-3.36-.49,14,14,0,0,0-3.14.35A7.81,7.81,0,0,0,473.48,90a5.9,5.9,0,0,0-1.84,2,6.36,6.36,0,0,0-.69,3.11,4.67,4.67,0,0,0,.4,2,4.15,4.15,0,0,0,1.09,1.46,5.5,5.5,0,0,0,1.6,1,11.16,11.16,0,0,0,1.93.6l8.09,2a24,24,0,0,1,3.32,1.14,11.14,11.14,0,0,1,2.74,1.67,7.21,7.21,0,0,1,1.86,2.44,8.2,8.2,0,0,1,.67,3.49,14.25,14.25,0,0,1-.11,1.49,7.89,7.89,0,0,1-.56,2,9.92,9.92,0,0,1-1.26,2.12,8,8,0,0,1-2.23,1.93,13,13,0,0,1-3.51,1.39,20.25,20.25,0,0,1-5,.53,21,21,0,0,1-5.45-.67,11.73,11.73,0,0,1-4.27-2.07,9.12,9.12,0,0,1-2.72-3.58,11.81,11.81,0,0,1-.81-5.25h3.16A9.34,9.34,0,0,0,470.67,113.09Z" transform="translate(-27.58 -36.17)"/><path class="cls-1" d="M499.81,95.75v4.56h.09a7.8,7.8,0,0,1,3.32-3.88,10,10,0,0,1,5.23-1.37,10.41,10.41,0,0,1,4.76,1,9.5,9.5,0,0,1,3.37,2.77,11.63,11.63,0,0,1,2,4,18.49,18.49,0,0,1,0,9.72,11.59,11.59,0,0,1-2,4,9.31,9.31,0,0,1-3.37,2.74,10.54,10.54,0,0,1-4.76,1,11,11,0,0,1-2.6-.32,9,9,0,0,1-2.42-1,7.85,7.85,0,0,1-2-1.62,6.82,6.82,0,0,1-1.32-2.28H500v13.38h-2.93V95.75Zm16.06,8.3a10.29,10.29,0,0,0-1.4-3.28A7.82,7.82,0,0,0,512,98.42a6.8,6.8,0,0,0-3.58-.9,8.73,8.73,0,0,0-4,.84,7,7,0,0,0-2.61,2.22,8.77,8.77,0,0,0-1.37,3.26,19,19,0,0,0-.39,3.9,15.47,15.47,0,0,0,.44,3.7,9.42,9.42,0,0,0,1.45,3.27,7.82,7.82,0,0,0,2.59,2.35,8,8,0,0,0,3.93.91,6.8,6.8,0,0,0,3.58-.91,7.82,7.82,0,0,0,2.44-2.35,10.14,10.14,0,0,0,1.4-3.27,15.73,15.73,0,0,0,0-7.39Z" transform="translate(-27.58 -36.17)"/><path class="cls-1" d="M526.48,95.75v5.63h.1a8.79,8.79,0,0,1,9.06-5.95v2.93a8.65,8.65,0,0,0-3.62.53,8.23,8.23,0,0,0-2.82,1.79,7.88,7.88,0,0,0-1.83,2.77,9.05,9.05,0,0,0-.65,3.5v12.79h-2.93v-24Z" transform="translate(-27.58 -36.17)"/><path class="cls-1" d="M541.4,86.55v4.69h-2.93V86.55Zm0,9.2v24h-2.93v-24Z" transform="translate(-27.58 -36.17)"/><path class="cls-1" d="M549.91,95.75v4.14H550a7,7,0,0,1,3-3.51,8.64,8.64,0,0,1,4.69-1.32,11.75,11.75,0,0,1,4.21.65,6.64,6.64,0,0,1,2.71,1.83,6.87,6.87,0,0,1,1.44,2.91,15.74,15.74,0,0,1,.42,3.86v15.43h-2.92v-15a13.35,13.35,0,0,0-.29-2.85,5.88,5.88,0,0,0-1-2.31,4.79,4.79,0,0,0-1.88-1.54,7.08,7.08,0,0,0-2.94-.55,7.54,7.54,0,0,0-3.15.63A6.83,6.83,0,0,0,552,99.86a8,8,0,0,0-1.5,2.61,10.73,10.73,0,0,0-.57,3.28v14H547v-24Z" transform="translate(-27.58 -36.17)"/><path class="cls-1" d="M591.66,122.57a9.18,9.18,0,0,1-1.83,3.62,8,8,0,0,1-3.28,2.28,13.56,13.56,0,0,1-4.95.79,14.77,14.77,0,0,1-3.53-.42,10.16,10.16,0,0,1-3.09-1.3,7.64,7.64,0,0,1-2.28-2.25,6.85,6.85,0,0,1-1.05-3.28h2.93a5.3,5.3,0,0,0,.91,2.26,5.41,5.41,0,0,0,1.63,1.46,7.23,7.23,0,0,0,2.11.81,11,11,0,0,0,2.37.26c2.73,0,4.69-.78,5.9-2.33s1.81-3.77,1.81-6.69v-3.25h-.09a8.59,8.59,0,0,1-3,3.58,8.05,8.05,0,0,1-4.62,1.35,11.48,11.48,0,0,1-4.92-1,9.1,9.1,0,0,1-3.38-2.63,10.82,10.82,0,0,1-1.93-3.92,19.09,19.09,0,0,1-.59-4.81,14.63,14.63,0,0,1,.71-4.67,11.69,11.69,0,0,1,2.09-3.86A9.74,9.74,0,0,1,577,96a10.63,10.63,0,0,1,4.62-1,8.32,8.32,0,0,1,2.53.37,8.15,8.15,0,0,1,2.16,1A9.63,9.63,0,0,1,588,98a7.18,7.18,0,0,1,1.18,1.86h.09V95.75h2.93v22A18.17,18.17,0,0,1,591.66,122.57ZM585,116.18a7.88,7.88,0,0,0,2.42-2.14,9.63,9.63,0,0,0,1.46-3,13.14,13.14,0,0,0,.48-3.54,15.25,15.25,0,0,0-.41-3.53,10.31,10.31,0,0,0-1.35-3.21,7.26,7.26,0,0,0-2.4-2.31,6.61,6.61,0,0,0-3.55-.89,7.08,7.08,0,0,0-3.58.86,7.58,7.58,0,0,0-2.46,2.25,9.58,9.58,0,0,0-1.42,3.18,15.45,15.45,0,0,0-.44,3.65,13.55,13.55,0,0,0,.47,3.54,9.17,9.17,0,0,0,1.43,3,7.63,7.63,0,0,0,2.47,2.14,7.25,7.25,0,0,0,3.53.81A6.73,6.73,0,0,0,585,116.18Z" transform="translate(-27.58 -36.17)"/><path class="cls-1" d="M611.62,100.42a4.65,4.65,0,0,0-1.37-1.64,5.65,5.65,0,0,0-2-1,9.05,9.05,0,0,0-2.37-.3,9.59,9.59,0,0,0-2,.21,6.25,6.25,0,0,0-1.84.69,3.94,3.94,0,0,0-1.34,1.29,3.49,3.49,0,0,0-.51,2,2.74,2.74,0,0,0,.48,1.64,4.56,4.56,0,0,0,1.24,1.15,8.13,8.13,0,0,0,1.63.76c.58.2,1.13.37,1.62.49l3.91.88a11.28,11.28,0,0,1,2.48.67,8,8,0,0,1,2.18,1.28,6.15,6.15,0,0,1,1.56,2,5.86,5.86,0,0,1,.61,2.74,6,6,0,0,1-.89,3.32,7.15,7.15,0,0,1-2.25,2.23,9.71,9.71,0,0,1-3.09,1.23,15.94,15.94,0,0,1-3.4.37,11,11,0,0,1-6.85-2c-1.75-1.34-2.75-3.47-3-6.42h2.92a5.77,5.77,0,0,0,2.16,4.48,7.83,7.83,0,0,0,4.91,1.52,11.35,11.35,0,0,0,2.2-.23,7.32,7.32,0,0,0,2.12-.8,5,5,0,0,0,1.6-1.41,3.49,3.49,0,0,0,.63-2.11,3.45,3.45,0,0,0-.44-1.8,3.92,3.92,0,0,0-1.19-1.21,7.87,7.87,0,0,0-1.7-.81,19,19,0,0,0-1.92-.55l-3.77-.84a22.92,22.92,0,0,1-2.65-.86,8.62,8.62,0,0,1-2.11-1.21,5.11,5.11,0,0,1-1.42-1.77,5.84,5.84,0,0,1-.51-2.58,5.76,5.76,0,0,1,.81-3.11,6.54,6.54,0,0,1,2.12-2.1,9.94,9.94,0,0,1,2.9-1.15,13.93,13.93,0,0,1,3.18-.37,11.64,11.64,0,0,1,3.37.46A7.78,7.78,0,0,1,612.44,97a7.21,7.21,0,0,1,1.88,2.41,9,9,0,0,1,.79,3.4h-2.93A5.54,5.54,0,0,0,611.62,100.42Z" transform="translate(-27.58 -36.17)"/></g><g id="UCCS_Logo_-_Color" data-name="UCCS Logo - Color"><g id="Background_shape" data-name="Background shape"><polygon id="Black_background" data-name="Black background" class="cls-1" points="216.06 24 206.2 14.09 205.68 13.57 204.95 13.57 171.59 13.57 170.86 13.57 170.34 14.1 162.22 22.34 154 14.09 153.48 13.57 152.75 13.57 119.52 13.57 118.79 13.57 118.28 14.09 110.03 22.35 101.78 14.09 101.27 13.57 100.54 13.57 67.33 13.57 66.6 13.57 66.09 14.09 60.57 19.62 60.57 15.33 60.57 13.57 58.81 13.57 37.78 13.57 36.02 13.57 36.02 15.33 36.02 18.62 24.92 18.62 24.92 15.33 24.92 13.57 23.16 13.57 2.47 13.57 0.71 13.57 0.71 15.33 0.71 32.4 0.71 34.15 2.47 34.15 4.16 34.15 4.16 60.53 4.16 61.26 4.68 61.78 14.66 71.67 15.17 72.18 15.89 72.18 45.13 72.18 45.85 72.18 46.37 71.66 55.49 62.51 56.96 62.51 66.1 71.64 66.61 72.15 67.34 72.15 100.54 72.15 101.28 72.15 101.79 71.63 110.01 63.35 118.29 71.64 118.8 72.15 119.53 72.15 152.75 72.15 153.49 72.15 154 71.63 162.2 63.36 170.34 71.63 170.86 72.15 171.59 72.15 204.91 72.15 205.63 72.15 206.15 71.64 216.04 61.74 216.56 61.22 216.56 60.5 216.56 43.59 216.56 42.86 216.04 42.34 212.38 38.67 214.82 38.67 216.58 38.67 216.58 36.92 216.58 25.24 216.58 24.52 216.06 24"/><path id="Gold_Stroke" data-name="Gold Stroke" class="cls-2" d="M73.72,109.06H42.45l-.72-.72L31,97.73V71H27.58V49H53.2v5h9.69V49h26v5l5-5h35.25l8.46,8.48L146.08,49h35.28l8.43,8.47L198.14,49h35.42l11.3,11.36V75.56h-3.19l3.17,3.18v19L233.51,109H198.14l-8.36-8.49L181.36,109H146.09l-8.5-8.5-8.44,8.5H93.89l-.72-.72-8.93-8.92h-.88ZM43,107.64H73.13L82.78,98h2l9.65,9.65h34.08l9-9.1,9.09,9.1h34.1l9-9.09,8.95,9.09h34.19l10.5-10.52V79.32l-5.17-5.18h5.19V61L233,50.45H198.73l-8.93,9.07-9-9.07h-34.1l-9.06,9.08-9-9.08H94.47l-7,7v-7H64.31v5H51.79v-5H29V69.62h3.45V97.14Z" transform="translate(-27.58 -36.17)"/></g><g id="Gold_U" data-name="Gold U"><polygon id="Gold_U-2" data-name="Gold U" class="cls-2" points="17.26 67.07 9.26 59.14 9.26 29.04 5.81 29.04 5.81 18.68 19.82 18.68 19.82 56.49 41.13 56.49 41.13 18.68 55.45 18.68 55.45 29.04 51.68 29.04 51.68 59.1 43.74 67.07 17.26 67.07"/><path id="White_Stroke" data-name="White Stroke" class="cls-3" d="M82.25,55.62v8.81H78.48V95L71,102.47H45.16L37.61,95V64.43H34.16V55.62H46.62V93.44H69.47V55.62H82.25m1.55-1.55H67.93V91.89H48.16V54.07H32.62V66h3.45V95.63l.46.46,7.54,7.47.45.45H71.64l.45-.45L79.58,96l.45-.45V66H83.8V54.07Z" transform="translate(-27.58 -36.17)"/></g><g id="Gold_C" data-name="Gold C"><polygon id="Gold_C-2" data-name="Gold C" class="cls-2" points="68.72 67.05 60.77 59.11 60.78 26.62 68.71 18.68 99.17 18.68 107.08 26.61 107.06 33.92 96.47 33.92 96.47 29.04 71.33 29.04 71.33 56.49 96.46 56.49 96.46 52.06 107.02 52.06 107.02 59.1 99.17 67.05 68.72 67.05"/><path id="White_Stroke-2" data-name="White Stroke" class="cls-3" d="M126.42,55.62l7.46,7.48,0,6.22h-9V64.43H98.13v29h26.68V89h9v6l-7.4,7.48H96.61L89.12,95V63.11l7.48-7.49h29.81m.65-1.55H96l-.45.46L88,62l-.45.45V95.6l.45.46,7.49,7.48L96,104h31.09l.45-.46,7.4-7.49.45-.45V87.46H123.26v4.43H99.67V66h23.6v4.89H135.4V69.33l0-6.22v-.64L135,62l-7.46-7.48-.45-.46Z" transform="translate(-27.58 -36.17)"/></g><g id="Gold_C-3" data-name="Gold C"><polygon id="Gold_C-4" data-name="Gold C" class="cls-2" points="120.91 67.05 112.97 59.11 112.98 26.62 120.91 18.68 151.35 18.68 159.26 26.61 159.25 33.92 148.71 33.92 148.71 29.04 123.47 29.04 123.47 56.49 148.71 56.49 148.71 52.06 159.22 52.06 159.22 59.1 151.36 67.05 120.91 67.05"/><path id="White_Stroke-3" data-name="White Stroke" class="cls-3" d="M178.61,55.62l7.45,7.48v6.22h-9V64.43H150.28v29h26.77V89h9v6l-7.41,7.48H148.8L141.32,95V63.11l7.47-7.49h29.81m.64-1.55H148.16l-.45.46L140.24,62l-.45.45V95.6l.45.46,7.48,7.48.45.45h31.09l.46-.46L187.12,96l.45-.45V87.46H175.51v4.43H151.82V66h23.69v4.89H187.6v-8.4l-.44-.45-7.46-7.49-.45-.46Z" transform="translate(-27.58 -36.17)"/></g><g id="Gold_S" data-name="Gold S"><polygon id="Gold_S-2" data-name="Gold S" class="cls-2" points="172.99 67.05 165.18 59.1 165.18 52.06 175.81 52.06 175.81 56.49 200.87 56.49 200.87 47.23 171.65 47.25 165.18 40.79 165.18 26.61 172.99 18.68 203.56 18.66 211.46 26.62 211.46 33.57 200.87 33.57 200.87 29.03 175.75 29.03 175.75 38.34 204.81 38.34 211.46 44.99 211.46 59.1 203.53 67.05 172.99 67.05"/><path id="White_Stroke-4" data-name="White Stroke" class="cls-3" d="M230.81,55.61l7.46,7.5V69h-9.05V64.43H202.55V75.28h29.51l6.21,6.2V95l-7.49,7.49H200.89L193.53,95V89h9.09v4.44h26.6V82.63l-29.67,0-6-6V63.1l7.36-7.48h29.92m.65-1.55H200.25l-.46.46L192.43,62l-.44.45V77.28l.45.45,6,6,.45.45h28.76v7.71H204.16V87.46H192v8.13l.44.45,7.36,7.49.46.46h31.17l.45-.45,7.49-7.49.45-.46V80.84l-.45-.45-6.2-6.2-.45-.46H204.09V66h23.58v4.54h12.14v-8l-.44-.45-7.46-7.5-.45-.46Z" transform="translate(-27.58 -36.17)"/></g></g></svg>